<?xml version="1.0" encoding="UTF-8"?>
<!DOCTYPE svg PUBLIC "-//W3C//DTD SVG 1.1//EN" "http://www.w3.org/Graphics/SVG/1.1/DTD/svg11.dtd">
<!-- Creator: CorelDRAW -->
<svg xmlns="http://www.w3.org/2000/svg" xml:space="preserve" width="187.99mm" height="34.96mm" version="1.1" style="shape-rendering:geometricPrecision; text-rendering:geometricPrecision; image-rendering:optimizeQuality; fill-rule:evenodd; clip-rule:evenodd"
viewBox="0 0 18799 3496"
 xmlns:xlink="http://www.w3.org/1999/xlink"
 xmlns:xodm="http://www.corel.com/coreldraw/odm/2003">
 <defs>
  <style type="text/css">
   <![CDATA[
    .fil1 {fill:#FEFEFE}
    .fil2 {fill:#EF7F1A}
    .fil0 {fill:#0060AA}
    .fil3 {fill:#FEFEFE;fill-rule:nonzero}
    .fil4 {fill:#0060AA;fill-rule:nonzero}
   ]]>
  </style>
 </defs>
 <g id="Layer_x0020_1">
  <metadata id="CorelCorpID_0Corel-Layer"/>
  <g id="_2122178734288">
   <polygon class="fil0" points="3370.96,-0.09 4143.91,3496.1 -0.2,3496.1 -0.2,-0.09 "/>
   <path class="fil1" d="M889.08 2772.1l1.89 -2.32c940.59,-193.77 2031.4,-1178.23 2040.87,-1621.26 6.4,-298.89 -263.28,-311.67 -465.98,-279.39l1.26 -1.5c0,0 689.43,-224.75 679.22,252.79 -10.21,477.51 -1276.72,1584.27 -2257.26,1651.68z"/>
   <path class="fil1" d="M2753.22 561.97l-1.93 2.33c-940.56,193.77 -2031.37,1178.23 -2040.84,1621.26 -6.38,298.89 263.31,311.65 465.99,279.38l-1.25 1.54c0,0 -689.46,224.68 -679.24,-252.82 10.22,-477.54 1276.72,-1584.26 2257.27,-1651.69z"/>
   <path class="fil1" d="M920.97 665.37c242.35,1123.93 968.95,1816.5 1895.98,1728.64l1.27 1.53c-1290.98,323.47 -2224.71,-593.99 -1897.25,-1730.17z"/>
   <path class="fil1" d="M939.99 624.26c126.28,-226.57 790.51,-263.93 1557.74,778.48l-460.94 245.72c-326.19,-393.29 -646.31,-678.69 -942.39,-535.18 -62.54,-151.42 -114.37,-314.86 -154.41,-489.02z"/>
   <path class="fil2" d="M1560.37 1527.09c195.3,2.67 351.43,163.13 348.71,358.45 -1.19,84.92 -32.15,162.43 -82.94,222.71 -186.09,-127.45 -350.82,-298.09 -489.28,-505.55 61.48,-48.36 139.21,-76.81 223.51,-75.61z"/>
   <path class="fil3" d="M1268.5 2906.02l-38.38 0 0 181.47 -22 0 0 -87.12c-5.59,1.85 -11.59,2.78 -17.98,2.78 -2.13,0 -4.53,-0.33 -7.19,-0.99 -2.69,-0.67 -5.74,-1.55 -9.2,-2.6 0.26,1.33 0.72,3.33 1.41,6 0.64,2.64 0.97,5.33 0.97,7.99 0,15.19 -4.45,27.92 -13.39,38.17 -8.92,10.26 -21.37,15.4 -37.36,15.4 -23.45,0 -45.18,-12.38 -65.15,-37.18 -15.47,-19.2 -23.18,-32.26 -23.18,-39.18l17.59 -11.6c8,15.19 14.63,26.52 19.96,33.99 16.81,22.66 33.74,33.99 50.78,33.99 8,0 14.6,-2.89 19.78,-8.61 5.21,-5.73 7.81,-13.78 7.81,-24.18 0,-11.46 -3.74,-19.86 -11.19,-25.2 -5.87,-3.98 -13.6,-5.99 -23.21,-5.99 -5.58,0 -9.92,0.34 -12.98,1.01 -3.06,0.65 -6.06,1.53 -9,2.58l-10.39 -24.77c2.67,1.06 5.99,1.62 10,1.62 9.84,0 18.39,-2.01 25.59,-6.08 9.6,-5.34 14.39,-13.13 14.39,-23.34 0,-8.31 -1.62,-14.78 -4.79,-19.29 -4.01,-5.95 -10.81,-8.87 -20.41,-8.87 -8.53,0 -17.65,4.05 -27.36,12.2 -9.75,8.1 -14.61,14.6 -14.61,19.38l-19.19 -14.8c0,-3.2 6,-9.46 18,-18.72 15.19,-11.53 30.52,-17.28 45.97,-17.28 14.91,0 26.37,4.55 34.36,13.63 7.2,7.99 10.81,18.37 10.81,31.17 0,9.33 -1.52,16.85 -4.62,22.58 -3.06,5.73 -7.24,10.58 -12.56,14.6 4.26,0.78 8.14,1.97 11.59,3.61 3.46,1.58 7.32,4.51 11.59,8.77 2.12,0.81 5.21,1.6 9.18,2.4 4.01,0.81 8.12,1.22 12.41,1.22 2.12,0 4.19,-0.28 6.2,-0.81 1.98,-0.55 4.46,-1.45 7.37,-2.86 2.93,-1.35 5.61,-2.81 8,-4.41l0 -70.68 -35.56 0 0 -19.22 95.94 0 0 19.22zm176.29 0.8l-31.98 0 0 180.67 -21.98 0 0 -97.93 -65.97 0 0 24.38c0,4.26 -0.14,6.8 -0.41,7.61 -1.33,4.53 -4.8,6.78 -10.39,6.78 -4.25,0 -12.17,-7.18 -23.77,-21.58 -11.62,-14.38 -17.12,-23.06 -16.6,-25.99 0.55,-6.39 5.72,-9.57 15.6,-9.57l13.18 0 0 -64.37 -55.56 0 0 -19.21 197.88 0 0 19.21zm-53.96 64.37l0 -64.37 -65.97 0 0 64.37 65.97 0zm43.96 191.45c-4.79,2.94 -8.92,5.07 -12.37,6.42 -11.21,4.5 -22.28,6.79 -33.21,6.79 -16.27,0 -28.98,-4.33 -38.17,-12.99 -9.19,-8.66 -13.79,-20.6 -13.79,-35.79 0,-13.06 4.67,-23.3 13.99,-30.78 7.2,-5.59 14.94,-8.39 23.18,-8.39l36.79 0 0 17.99 -34.77 0c-6.15,0 -11.05,1.74 -14.82,5.19 -4.79,4.54 -7.16,11.33 -7.16,20.4 0,8.8 2.64,15.72 7.96,20.78 5.34,5.07 13.33,7.6 23.98,7.6 9.34,0 18.29,-2.13 26.81,-6.39 2.65,-1.36 6.13,-3.62 10.41,-6.83l11.17 16zm199.48 -255.82l-32.39 0 0 180.67 -21.99 0 0 -124.7 -72.34 0c-6.42,0 -11.6,1.94 -15.59,5.79 -4,3.86 -6.01,9.53 -6.01,16.98 0,17.33 9.07,37.18 27.19,59.57 5.88,7.47 15.06,16.92 27.57,28.38l-13.99 12.38c-3.45,0 -14.11,-11.03 -31.97,-33.16 -20.79,-25.85 -31.15,-48.26 -31.15,-67.17 0,-13.06 3.71,-23.44 11.17,-31.17 7.47,-7.74 16.91,-11.6 28.38,-11.6l76.74 0 0 -35.97 -146.7 0 0 -19.21 201.08 0 0 19.21zm-30.39 -55.98l-30.39 0 0 -30.38 30.39 0 0 30.38zm339.8 55.98l-32.39 0 0 180.67 -21.97 0 0 -124.7 -72.37 0c-6.4,0 -11.59,1.94 -15.59,5.79 -3.99,3.86 -6,9.53 -6,16.98 0,17.33 9.06,37.18 27.18,59.57 5.87,7.47 15.07,16.92 27.59,28.38l-13.99 12.38c-3.48,0 -14.12,-11.03 -31.97,-33.16 -20.78,-25.85 -31.17,-48.26 -31.17,-67.17 0,-13.06 3.72,-23.44 11.19,-31.17 7.45,-7.74 16.92,-11.6 28.37,-11.6l76.76 0 0 -35.97 -146.71 0 0 -19.21 201.07 0 0 19.21zm-2.81 220.25c0,16.79 -6.92,29.45 -20.77,37.97 -11.46,6.96 -25.47,10.41 -41.99,10.41 -21.86,0 -43.57,-6.67 -65.16,-19.98 -7.17,-4.26 -15.86,-11.07 -25.99,-20.4l12.41 -17.19c10.39,8.79 18.92,15.33 25.57,19.59 20.26,13.34 37.58,19.98 51.99,19.98 11.99,0 21.59,-1.98 28.78,-5.98 9.32,-5.07 13.98,-13.19 13.98,-24.4 0,-7.44 -2.41,-13.13 -7.19,-16.97 -4.81,-3.89 -10.93,-5.81 -18.39,-5.81 -5.6,0 -11.54,2.2 -17.81,6.59 -6.23,4.4 -10.06,8.48 -11.37,12.2l-17.6 -13.58c3.45,-6.66 9.79,-12.34 19.01,-16.99 9.16,-4.67 19.24,-7 30.18,-7 12.77,0 23.58,4.52 32.39,13.59 7.99,8.25 11.96,17.59 11.96,27.97zm323.81 -233.84l-21.58 0c0,-6.43 -9.48,-19.21 -28.4,-38.37 -22.9,-23.19 -44.88,-34.8 -65.95,-34.8 -11.18,0 -20.57,3.94 -28.17,11.79 -7.59,7.86 -11.4,17.79 -11.4,29.77 0,5.09 0.8,10.81 2.33,17.19 0.34,2.14 1.27,5.06 2.87,8.8l32.37 0 0 19.21 -32.37 0 0 180.67 -22.01 0 0 -180.67 -40.36 0 0 -19.21 41.98 0c-1.05,-4.79 -1.74,-8.37 -2.02,-10.78 -1.56,-8.51 -2.37,-13.33 -2.37,-14.38 0,-17.61 5.18,-31.98 15.59,-43.2 11.45,-12.26 26.93,-18.37 46.34,-18.37 16.81,0 34.81,7.44 53.99,22.39 14.92,11.74 29.05,26.12 42.38,43.16 11.18,14.39 16.78,23.32 16.78,26.8zm45.16 13.59l-31.97 0 0 180.67 -21.98 0 0 -57.55c-4.79,3.99 -10.39,7.32 -16.8,10 -6.39,2.66 -13.71,3.99 -21.98,3.99 -16,0 -29.78,-5.54 -41.36,-16.6 -11.6,-11.05 -17.41,-24.32 -17.41,-39.77 0,-15.47 5.54,-28.57 16.65,-39.39 11.14,-10.77 24.75,-16.16 40.8,-16.16 8.25,0 15.5,1.73 21.64,5.18 1.07,0.81 4.19,3.21 9.26,7.2l0 18.4c-5.35,-2.67 -10.85,-5.07 -16.6,-7.2 -5.71,-2.14 -10.86,-3.21 -15.39,-3.21 -9.58,0 -17.64,3.27 -24.17,9.8 -6.54,6.52 -9.78,15 -9.78,25.38 0,9.86 3.72,18.67 11.17,26.38 7.47,7.73 15.86,11.58 25.19,11.58 7.99,0 16.68,-3.7 25.99,-11.17 7.45,-5.86 11.71,-10.41 12.79,-13.6l0 -93.93 -129.52 0 0 -19.21 183.47 0 0 19.21zm221.07 0l-32.34 0 0 180.67 -22.43 0 0 -52.77c-11.98,10.14 -25.97,18.13 -41.97,23.99 -13.85,5.07 -26.92,7.6 -39.17,7.6 -13.87,0 -25.92,-4.01 -36.16,-11.98 -10.28,-8 -15.41,-18.4 -15.41,-31.18 0,-4.81 1.07,-9.39 3.19,-13.79 2.15,-4.41 4.55,-8.07 7.2,-11.01 -6.39,-4.26 -11.73,-9.07 -15.99,-14.38 -6.4,-7.99 -9.6,-15.87 -9.6,-23.59 0,-9.05 3.08,-15.94 9.2,-20.58 6.15,-4.69 13.74,-6.98 22.78,-6.98l46.37 0 0 -26 -112.72 0 0 -19.21 237.05 0 0 19.21zm-54.77 105.12l0 -105.12 -47.17 0 0 43.96 -61.97 0c-6.11,0 -10.45,0.48 -12.99,1.4 -2.53,0.93 -3.76,3.94 -3.76,9.01 0,6.64 3.17,13.05 9.57,19.16 2.14,1.89 5.32,4.26 9.6,7.21 3.19,-0.98 5.72,-1.73 7.58,-2.19 6.14,-1.48 11.73,-2.21 16.8,-2.24l22.37 0.03 9.63 17.21 -7.61 2.78c-1.32,-1.86 -7.61,-2.78 -18.79,-2.78 -9.05,0 -17.04,1.65 -23.99,4.98 -6.94,3.34 -10.39,9 -10.39,16.99 0,8.52 4.27,15.07 12.79,19.59 6.66,3.48 13.85,5.21 21.59,5.21 16.26,0 33.99,-5.87 53.15,-17.61 6.14,-3.72 14.02,-9.59 23.59,-17.59zm129.12 -105.12l-29.55 0 0 180.67 -21.61 0 0 -180.67 -38.78 0 0 -19.21 89.94 0 0 19.21z"/>
   <path class="fil4" d="M5420.51 368.43c116.4,-7.77 273.61,1.01 471.31,26.65 136.98,30.39 219.31,45.55 246.95,45.55l14.88 18.9 -14.88 178.82 -3.7 250.98c-2.7,32.42 -10.47,49.94 -22.93,52.31l-25.65 -3.7 -11.82 -41.51c-5.39,-169.37 -91.75,-284.75 -259.11,-346.14 -136.96,-50.6 -289.13,-66.8 -456.44,-48.25 -106.29,16.86 -191.98,45.55 -258.12,86.01 -51.28,33.42 -98.51,76.6 -141.37,129.23 -93.45,127.18 -147.76,300.95 -162.92,520.93 -5.42,149.8 9.41,278.65 44.52,387.61 28.34,91.45 71.52,177.83 129.56,258.8 150.13,187.24 331.3,294.52 543.53,322.2 104.56,5.39 200.03,0.32 285.74,-14.84 86.01,-20.26 148.44,-50.96 186.57,-91.78l60.38 -71.17c33.73,-61.42 54,-117.09 61.42,-167.02 22.93,-22.94 39.46,-20.58 49.24,7.77 0,69.84 -15.19,179.82 -45.53,329.27 -7.1,43.51 -19.59,71.52 -37.47,84.01 -58.69,40.13 -194.33,65.46 -407.2,76.24 -235.83,2.37 -424.75,-21.59 -566.47,-72.2 -208.17,-71.19 -371.78,-192.99 -491.21,-364.71 -98.88,-142.37 -153.16,-316.1 -162.94,-520.9 -2.71,-179.5 20.93,-328.95 71.16,-448.71 9.78,-32.39 41.83,-91.77 95.81,-178.15 187.93,-255.73 456.48,-391.01 806.69,-406.2zm856.6 6.07c265.51,10.46 508.78,10.46 729.77,0 26.3,5.07 38.12,11.8 35.41,19.58l-4.07 23.94 -15.83 7.77c-80.97,0 -131.94,10.44 -153.18,31.7 -20.92,20.93 -32.71,43.54 -35.42,67.16 -13.17,67.8 -15.87,296.55 -8.1,685.89l994.6 0 3.71 -7.77c5.4,-446.69 0,-678.12 -15.86,-693.98 -13.15,-31.72 -31.38,-52.65 -55.32,-63.09 -5.06,-5.39 -64.45,-13.18 -177.79,-23.95 -7.78,-5.06 -10.49,-15.87 -7.78,-31.38 5.06,-10.8 15.51,-15.87 31.38,-15.87 270.93,10.46 515.83,10.46 734.48,0l31.71 15.87c2.7,20.9 0,31.38 -8.12,31.38 -71.17,2.68 -122.46,12.13 -154.16,27.65 -39.49,21.25 -57.68,89.41 -55.33,204.79l0 1362c5.38,102.21 11.79,173.09 19.9,212.56 13.16,39.45 31.7,63.09 55.32,71.18 58.03,10.46 121.11,17.21 189.62,19.56 15.86,10.8 21.27,21.25 15.86,31.7l-19.57 15.88c-297.22,-5.4 -558.05,-5.4 -782.06,0 -13.16,-5.4 -20.9,-11.81 -23.6,-19.9 0,-15.54 5.41,-24.98 15.85,-27.68 60.74,0 106.61,-6.41 138.31,-19.56 36.79,-18.57 58.05,-105.27 63.45,-260.13l3.71 -675.08 -11.81 -7.77 -982.45 0 -7.77 7.77c-2.7,389.68 0,643.38 7.77,761.1l19.92 118.78c13.15,29.02 32.71,48.57 59.02,59.04l181.18 15.85c15.52,10.8 20.92,21.25 15.52,31.7l-23.62 15.88c-297.24,-5.4 -557.35,-5.4 -780.7,0l-19.91 -15.88c-2.69,-15.83 0,-24.95 8.1,-27.65l126.54 -15.86c31.35,-2.71 53.64,-36.77 66.1,-102.57 15.87,-162.93 20.92,-269.21 15.87,-319.48l0 -1279.01c-2.71,-73.2 -15.52,-120.09 -38.79,-141.36 -39.48,-26.31 -68.5,-38.13 -86.72,-35.41l-111 -4.06c-15.51,-5.39 -22.27,-14.52 -19.55,-27.68 10.45,-18.54 22.27,-26.28 35.41,-23.61zm2877.52 1185.89l4.06 12.14 467.22 0 -231.08 -660.59 -14.84 14.85 -225.36 633.6zm285.71 -1166.31c27.69,-8.45 50.29,10.44 68.17,56.34l619.76 1602.22c39.49,86.34 70.86,143.05 93.79,170.02 34.75,40.83 66.12,66.48 93.8,76.25 44.88,10.46 91.1,15.86 138.32,15.86l11.81 10.78c0,22.29 -10.09,33.75 -30.35,33.75l-82.01 4.73c-353.9,0 -532.01,-6.41 -533.72,-19.58l0 -22.93c12.47,-9.77 26.31,-14.84 41.5,-14.84 9.78,-7.77 15.88,-20.25 18.55,-37.45l-203.42 -561.42 -14.84 -7.08 -551.59 0 -18.91 29.71 -143.38 394.39 -18.57 82.99c-2.68,50.96 5.74,81.32 25.65,91.09l30.7 11.8c64.46,0 101.23,2.72 109.64,7.77 7.44,19.9 3.06,33.4 -12.81,40.82 -162.26,-4.72 -363.36,-4.72 -603.93,0l-14.83 -14.85 4.07 -25.97 25.64 -7.77c60.04,7.1 116.39,-6.73 169.02,-41.48 40.16,-31.06 81.31,-103.24 123.47,-216.59l612.67 -1598.18c12.82,-30.35 26.64,-50.26 41.8,-60.38zm1637.65 137.64l0 846.84c13.16,18.55 64.44,33.05 153.18,43.5 87.06,5.39 152.5,0 196.69,-15.86 116.05,-65.77 180.49,-196.01 193.66,-390.32 2.67,-288.47 -110.34,-457.84 -338.75,-508.1 -118.05,-7.77 -186.21,0 -204.78,23.94zm-527.65 -153.51l476.37 8.09 319.16 -8.09c70.52,2.71 137.31,10.8 200.75,23.97 133.59,36.77 225.7,89.06 275.62,157.21 54.67,68.48 88.75,153.86 101.91,255.72 2.7,141.71 -27.34,262.82 -90.09,363.03 -42.16,62.43 -78.93,109.66 -110.67,141.36l-133.25 126.54 409.24 527.63c107.27,128.55 183.2,209.87 228.07,244.27l43.51 30.36c60.73,42.18 142.04,66.12 244.26,71.19 15.88,10.8 17.21,25.32 4.04,43.52l-43.51 8.12c-133.92,2.67 -262.47,0 -385.61,-8.12 -73.89,-10.46 -143.39,-43.52 -208.51,-98.84 -63.4,-54.67 -133.28,-135.95 -209.51,-243.93l-294.55 -429.15c-15.84,-23.6 -33.05,-36.77 -51.61,-39.48 -144.04,-5.39 -226.73,-5.39 -247.97,0 -7.75,349.2 0,578.96 23.64,688.94 21.24,39.47 38.11,59.38 50.6,59.38l185.88 23.61c10.47,26.33 5.07,40.82 -15.86,43.53 -286.76,-5.4 -536.09,-5.4 -748.31,0l-19.89 -15.88c-2.36,-15.83 0,-24.95 8.1,-27.65l125.5 -15.86c31.71,-2.71 53.96,-36.42 67.12,-101.89 15.88,-162.61 21.27,-268.89 15.88,-319.14l0 -1275.97c-2.71,-73.89 -15.88,-120.8 -39.5,-141.38 -39.47,-26.32 -68.48,-38.12 -87.02,-35.42l-109.67 -4.03c-15.82,-5.42 -22.6,-14.51 -19.9,-27.67 10.46,-18.56 22.61,-26.33 35.78,-23.97zm1697.34 -0.67c269.58,10.47 508.44,10.47 716.59,0 26,5.05 37.44,11.8 34.78,19.56l-10.83 26.66c-62.05,2.7 -109.62,11.48 -143.38,26.66l-34.75 38.78c-12.48,15.54 -19.9,123.83 -22.59,324.23l0 720.3c5.38,116.07 11.46,195.7 18.88,239.22l34.41 139.34c64.76,172.06 190.96,274.95 378.56,308.36 185.2,12.81 329.27,-37.45 432.15,-150.15 76.93,-98.19 119.14,-247.3 126.56,-447.7l0 -994.26c0,-77.24 -11.83,-128.53 -34.78,-154.18l-34.75 -27.64c-2.35,-4.74 -57.67,-12.49 -165.98,-22.96 -7.09,-10.46 -9.46,-20.58 -6.73,-30.71l30.69 -15.51 401.14 7.77 215.6 -7.77 30.66 15.51 -4.02 26.66 -14.85 8.11c-28.33,-2.72 -66.79,1.35 -115.72,11.8 -31.03,15.19 -51.61,35.77 -62.07,61.41 -10.13,38.1 -14.86,77.93 -14.86,119.42l-4.03 937.24c-13.17,248.99 -73.91,437.6 -181.85,566.13 -141.04,151.48 -313.1,231.44 -515.85,239.19 -79.96,2.7 -154.54,0 -224.69,-7.75 -271.95,-38.12 -451.79,-169.37 -539.47,-393.38 -12.49,-20.59 -30.39,-87.04 -53.33,-199.74l-15.85 -147.09 0 -882.93 -8.1 -184.89c-7.08,-48.58 -30.01,-82.32 -69.17,-100.51l-34.39 -11.16 -123.5 -7.74 -18.88 -19.9c0,-20.26 11.45,-30.38 34.4,-30.38zm2074.89 1434.89c9.77,-2.38 19.89,1.32 30.35,12.14 12.83,242.22 116.39,380.22 311.4,412.96 63.43,10.44 127.87,5.71 194,-14.87 103.23,-38.13 168.69,-117.73 196.68,-239.18 2.37,-45.22 0.35,-86.06 -7.07,-121.47 -2.7,-20.58 -16.87,-57.03 -42.51,-109.64l-41.51 -61.42 -121.45 -121.44c-151.84,-116.73 -249.35,-199.05 -292.85,-247.31 -49.94,-47.9 -95.48,-105.93 -136.3,-173.76 -101.56,-203.08 -102.9,-384.25 -4.04,-543.83 98.85,-136.3 244.59,-212.2 436.91,-227.07 89.05,-5.39 187.9,0.67 296.54,18.57 85.7,17.87 127.54,31.71 125.52,41.48l-7.78 175.12 0 177.79c-5.38,28.32 -11.44,42.52 -18.86,42.52 -20.27,2.67 -30.72,0 -30.72,-7.77l-18.56 -110c-30.35,-83.67 -86.03,-147.08 -167.01,-190.6 -48.24,-22.29 -116.73,-31.07 -205.78,-25.65 -136.32,24.97 -214.6,102.23 -235.18,231.11l0 53.64c5.41,42.84 15.54,76.59 30.7,101.55l53.33 76.25 82.99 84.01c185.21,144.4 289.13,229.06 311.4,254.03 230.76,215.6 303.98,454.81 220.31,717.6 -88.75,212.89 -268.88,329.3 -539.48,349.88 -73.2,2.7 -141.35,0 -204.79,-7.77 -63.09,-10.11 -112.68,-21.27 -148.08,-33.75 -58.05,-22.93 -87.08,-37.09 -87.08,-42.49l-15.81 -29.7c-2.7,-96.16 1.34,-228.05 11.8,-395.38 2.66,-20.26 10.43,-35.46 22.93,-45.55zm1712.85 -252.04l4.06 12.14 467.25 0 -231.11 -660.59 -14.85 14.85 -225.35 633.6zm285.74 -1166.31c27.68,-8.45 50.28,10.44 68.16,56.34l619.78 1602.22c39.47,86.34 70.84,143.05 93.77,170.02 34.75,40.83 66.14,66.48 93.8,76.25 44.87,10.46 91.09,15.86 138.33,15.86l11.8 10.78c0,22.29 -10.1,33.75 -30.35,33.75l-81.99 4.73c-353.91,0 -532.04,-6.41 -533.75,-19.58l0 -22.93c12.49,-9.77 26.33,-14.84 41.51,-14.84 9.79,-7.77 15.88,-20.25 18.56,-37.45l-203.44 -561.42 -14.83 -7.08 -551.63 0 -18.89 29.71 -143.37 394.39 -18.58 82.99c-2.68,50.96 5.75,81.32 25.65,91.09l30.69 11.8c64.45,0 101.22,2.72 109.66,7.77 7.42,19.9 3.05,33.4 -12.82,40.82 -162.27,-4.72 -363.37,-4.72 -603.92,0l-14.84 -14.85 4.06 -25.97 25.65 -7.77c60.04,7.1 116.38,-6.73 169.03,-41.48 40.14,-31.06 81.32,-103.24 123.45,-216.59l612.68 -1598.18c12.83,-30.35 26.67,-50.26 41.83,-60.38zm902.5 -23.61c2.7,7.74 67.81,16.87 195.68,26.63l1204.12 0 144.05 -22.6c21.26,-2.67 31.7,1.03 31.7,10.81l-7.73 367.75c-5.42,13.16 -11.85,20.9 -19.93,23.6l-23.63 -7.77 -8.08 -15.83 -7.75 -82.01c-17.89,-60.04 -84.03,-99.18 -198.73,-117.72 -114.71,-7.42 -251.34,-10.81 -410.25,-10.81l0 1370.76c4.73,159.58 10.78,261.48 18.89,305.34 10.46,39.14 27.69,63.77 51.29,74.23l58.36 15.85 109.65 4.04c23.27,0 37.46,4.72 42.51,14.84 2.7,18.22 -5.05,30.39 -23.62,35.43 -429.82,-5.04 -677.12,-3.71 -742.22,4.06 -25.64,0 -42.51,-6.75 -50.61,-19.9 -2.37,-15.19 1.33,-25.33 12.15,-30.37 85.34,0 136.29,-10.79 152.14,-31.74 30.71,-21.24 47.58,-121.43 50.28,-300.58l0 -1441.96 -456.48 10.81c-70.51,7.74 -116.38,22.26 -137.63,43.51l-46.23 66.12 -23.97 74.22c-25.65,15.88 -41.16,14.52 -46.22,-4.02 -8.09,-15.19 -0.32,-81.32 22.62,-198.75 18.54,-101.2 33.06,-158.23 43.51,-171.04 10.45,-12.49 32.74,-10.12 66.13,7.1z"/>
   <path class="fil4" d="M4634.59 2752.96c22.37,-1.63 52.51,0.22 90.45,5.61 26.27,6.39 42.09,9.61 47.38,9.61l2.84 3.95 -2.84 37.64 -0.7 52.83c-0.53,6.81 -2.01,10.52 -4.42,11.03l-4.91 -0.8 -2.26 -8.73c-1.06,-35.64 -17.62,-59.93 -49.7,-72.87 -26.29,-10.65 -55.49,-14.06 -87.6,-10.14 -20.39,3.56 -36.82,9.58 -49.49,18.11 -9.86,7.03 -18.93,16.13 -27.12,27.2 -17.96,26.77 -28.35,63.35 -31.28,109.64 -1.04,31.53 1.82,58.66 8.53,81.6 5.44,19.24 13.76,37.42 24.88,54.46 28.8,39.41 63.53,61.99 104.28,67.8 20.05,1.16 38.36,0.07 54.82,-3.1 16.5,-4.26 28.46,-10.73 35.75,-19.32l11.6 -15.01c6.49,-12.9 10.38,-24.63 11.8,-35.13 4.41,-4.83 7.58,-4.34 9.45,1.63 0,14.72 -2.92,37.85 -8.75,69.31 -1.35,9.17 -3.74,15.05 -7.17,17.69 -11.27,8.45 -37.29,13.76 -78.13,16.04 -45.25,0.5 -81.49,-4.54 -108.66,-15.18 -39.94,-15 -71.33,-40.63 -94.26,-76.79 -18.96,-29.94 -29.37,-66.52 -31.28,-109.64 -0.5,-37.76 4.04,-69.23 13.67,-94.44 1.89,-6.82 8.04,-19.32 18.39,-37.5 36.05,-53.81 87.59,-82.3 154.73,-85.5zm164.37 1.28c50.92,2.2 97.61,2.2 140,0 5.03,1.08 7.35,2.48 6.83,4.13l-0.8 5.04 -3.07 1.62c-15.51,0 -25.27,2.22 -29.35,6.68 -4.02,4.42 -6.29,9.17 -6.81,14.13 -2.53,14.28 -3.05,62.42 -1.55,144.36l190.79 0 0.75 -1.63c1.02,-94.02 0,-142.73 -3.06,-146.06 -2.52,-6.67 -6.03,-11.08 -10.63,-13.28 -0.96,-1.14 -12.35,-2.76 -34.1,-5.05 -1.5,-1.07 -2.02,-3.33 -1.5,-6.61 1.02,-2.25 2.98,-3.33 6.02,-3.33 51.99,2.2 98.98,2.2 140.91,0l6.07 3.33c0.53,4.42 0,6.61 -1.53,6.61 -13.67,0.59 -23.48,2.56 -29.58,5.83 -7.59,4.48 -11.07,18.82 -10.61,43.1l0 286.69c1.01,21.51 2.25,36.43 3.8,44.72 2.56,8.32 6.09,13.28 10.62,14.99 11.14,2.2 23.25,3.64 36.38,4.13 3.06,2.26 4.09,4.47 3.06,6.67l-3.76 3.34c-57.03,-1.14 -107.07,-1.14 -150.06,0 -2.52,-1.14 -4,-2.49 -4.54,-4.18 0,-3.27 1.06,-5.27 3.07,-5.83 11.66,0 20.46,-1.35 26.51,-4.13 7.07,-3.92 11.14,-22.15 12.18,-54.75l0.75 -142.1 -2.28 -1.62 -188.49 0 -1.51 1.62c-0.52,82.02 0,135.44 1.51,160.21l3.82 25.01c2.53,6.09 6.29,10.23 11.34,12.41l34.73 3.35c3,2.26 4.04,4.47 3,6.67l-4.55 3.34c-57.03,-1.14 -106.91,-1.14 -149.74,0l-3.86 -3.34c-0.52,-3.33 0,-5.27 1.58,-5.82l24.24 -3.36c6.04,-0.55 10.33,-7.72 12.69,-21.57 3.06,-34.3 4.05,-56.68 3.06,-67.26l0 -269.22c-0.53,-15.38 -2.98,-25.25 -7.42,-29.74 -7.59,-5.54 -13.16,-8.03 -16.63,-7.44l-21.35 -0.87c-2.95,-1.11 -4.25,-3.04 -3.72,-5.8 2,-3.91 4.25,-5.54 6.79,-4.99zm552.05 249.61l0.78 2.55 89.65 0 -44.33 -139.04 -2.86 3.13 -43.24 133.36zm54.83 -245.48c5.28,-1.78 9.64,2.19 13.07,11.86l118.9 337.24c7.57,18.18 13.61,30.1 18.01,35.77 6.66,8.61 12.7,14 17.98,16.06 8.63,2.21 17.49,3.34 26.52,3.34l2.29 2.29c0,4.68 -1.94,7.08 -5.82,7.08l-15.73 1.01c-67.91,0 -102.09,-1.36 -102.39,-4.14l0 -4.8c2.37,-2.09 5.01,-3.15 7.96,-3.15 1.88,-1.63 3.03,-4.26 3.56,-7.89l-39.06 -118.16 -2.83 -1.48 -105.83 0 -3.64 6.24 -27.49 83.02 -3.57 17.48c-0.48,10.72 1.11,17.1 4.94,19.16l5.88 2.49c12.35,0 19.42,0.58 21.02,1.63 1.43,4.19 0.6,7.04 -2.45,8.59 -31.1,-1 -69.72,-1 -115.86,0l-2.85 -3.13 0.8 -5.46 4.9 -1.63c11.53,1.48 22.33,-1.43 32.41,-8.75 7.71,-6.52 15.63,-21.7 23.69,-45.57l117.56 -336.39c2.46,-6.4 5.12,-10.57 8.03,-12.71zm314.14 28.95l0 178.25c2.58,3.91 12.41,6.97 29.41,9.18 16.7,1.13 29.25,0 37.74,-3.33 22.29,-13.87 34.64,-41.27 37.13,-82.18 0.53,-60.71 -21.16,-96.37 -64.95,-106.95 -22.67,-1.64 -35.74,0 -39.33,5.03zm-101.2 -32.32l91.42 1.72 61.2 -1.72c13.53,0.59 26.34,2.29 38.5,5.07 25.65,7.73 43.31,18.75 52.89,33.09 10.51,14.42 17.02,32.39 19.53,53.82 0.53,29.83 -5.21,55.32 -17.26,76.43 -8.09,13.12 -15.16,23.06 -21.22,29.75l-25.56 26.62 78.48 111.07c20.6,27.04 35.17,44.16 43.77,51.41l8.36 6.4c11.63,8.86 27.22,13.91 46.86,14.98 3.04,2.26 3.29,5.31 0.76,9.16l-8.35 1.69c-25.67,0.58 -50.36,0 -73.99,-1.69 -14.16,-2.22 -27.48,-9.16 -39.99,-20.81 -12.17,-11.5 -25.58,-28.63 -40.18,-51.34l-56.51 -90.34c-3.05,-4.96 -6.36,-7.74 -9.89,-8.29 -27.64,-1.16 -43.51,-1.16 -47.62,0 -1.47,73.5 0,121.84 4.58,145 4.07,8.31 7.3,12.49 9.7,12.49l35.66 4.98c1.99,5.54 0.95,8.57 -3.06,9.16 -55.01,-1.14 -102.84,-1.14 -143.55,0l-3.81 -3.34c-0.45,-3.33 0,-5.27 1.55,-5.82l24.07 -3.36c6.1,-0.55 10.35,-7.66 12.88,-21.42 3.04,-34.25 4.09,-56.6 3.04,-67.18l0 -268.58c-0.51,-15.54 -3.04,-25.42 -7.58,-29.76 -7.57,-5.54 -13.14,-8.03 -16.68,-7.45l-21.05 -0.84c-3.06,-1.13 -4.36,-3.07 -3.82,-5.83 2.03,-3.91 4.33,-5.53 6.87,-5.07zm456.83 179.62c-0.52,13.27 0.24,30.86 2.29,52.83 3.88,27.82 10.71,52.48 20.42,73.84 13.16,27.93 30.22,49.29 51.22,64.28 15.6,9.6 34.38,16.54 56.32,20.8 22.37,1.57 41.15,-1.42 56.37,-8.95 39.43,-20.22 61.81,-66.17 67.09,-137.91 3.07,-66.32 -7.86,-119.02 -32.81,-158.15 -23.35,-34.63 -54.86,-54.94 -94.41,-60.91 -23.89,-1.14 -43.13,2.06 -57.68,9.58 -42.99,22.44 -65.89,70.66 -68.81,144.59zm114.91 -180.58c33.13,-1.71 63.35,2.33 90.69,12.06 71.64,28.26 110.14,86.57 115.45,174.98 2,70.59 -16.52,128.32 -55.6,173.27 -20.46,21.36 -41.89,36.56 -64.27,45.59 -19.61,8.02 -41.36,12.86 -65.25,14.55 -31.08,1.06 -59.08,-3.18 -84.01,-12.93 -70.16,-30.52 -109.39,-92.01 -117.73,-184.56 -1.87,-64.19 15.65,-118.52 52.75,-162.88 33.59,-36.87 76.26,-56.9 127.97,-60.08zm241.19 -0.66c0.48,1.62 12.98,3.56 37.52,5.62l231.01 0 27.62 -4.76c4.07,-0.55 6.08,0.22 6.08,2.27l-1.47 77.41c-1.06,2.76 -2.28,4.41 -3.83,4.97l-4.52 -1.63 -1.54 -3.34 -1.52 -17.25c-3.41,-12.65 -16.1,-20.87 -38.12,-24.78 -22.01,-1.59 -48.2,-2.29 -78.72,-2.29l0 288.55c0.93,33.58 2.09,55.01 3.65,64.23 2,8.25 5.28,13.44 9.86,15.65l11.16 3.33 21.07 0.86c4.46,0 7.16,0.99 8.13,3.13 0.51,3.83 -0.97,6.38 -4.54,7.45 -82.46,-1.07 -129.92,-0.79 -142.36,0.85 -4.95,0 -8.16,-1.43 -9.73,-4.18 -0.47,-3.22 0.25,-5.35 2.32,-6.4 16.38,0 26.15,-2.29 29.19,-6.67 5.88,-4.49 9.14,-25.57 9.65,-63.29l0 -303.51 -87.58 2.29c-13.51,1.62 -22.32,4.69 -26.4,9.15l-8.87 13.93 -4.59 15.61c-4.92,3.34 -7.89,3.07 -8.87,-0.84 -1.55,-3.21 -0.07,-17.13 4.33,-41.85 3.56,-21.29 6.36,-33.3 8.36,-35.99 2,-2.63 6.28,-2.12 12.71,1.48zm414.73 250.47l0.78 2.55 89.63 0 -44.3 -139.04 -2.87 3.13 -43.24 133.36zm54.82 -245.48c5.31,-1.78 9.66,2.19 13.07,11.86l118.94 337.24c7.55,18.18 13.6,30.1 17.96,35.77 6.68,8.61 12.7,14 18,16.06 8.63,2.21 17.48,3.34 26.52,3.34l2.33 2.29c0,4.68 -1.98,7.08 -5.87,7.08l-15.72 1.01c-67.91,0 -102.07,-1.36 -102.4,-4.14l0 -4.8c2.4,-2.09 5.03,-3.15 7.97,-3.15 1.89,-1.63 3.02,-4.26 3.54,-7.89l-39.01 -118.16 -2.87 -1.48 -105.81 0 -3.62 6.24 -27.53 83.02 -3.55 17.48c-0.51,10.72 1.1,17.1 4.95,19.16l5.86 2.49c12.35,0 19.42,0.58 21.05,1.63 1.39,4.19 0.56,7.04 -2.49,8.59 -31.11,-1 -69.7,-1 -115.86,0l-2.83 -3.13 0.77 -5.46 4.92 -1.63c11.52,1.48 22.34,-1.43 32.42,-8.75 7.72,-6.52 15.61,-21.7 23.69,-45.57l117.56 -336.39c2.48,-6.4 5.12,-10.57 8.01,-12.71zm314.18 28.95l0 178.25c2.55,3.91 12.37,6.97 29.39,9.18 16.7,1.13 29.24,0 37.75,-3.33 22.25,-13.87 34.6,-41.27 37.13,-82.18 0.55,-60.71 -21.14,-96.37 -64.98,-106.95 -22.67,-1.64 -35.72,0 -39.29,5.03zm-101.23 -32.32l91.4 1.72 61.22 -1.72c13.52,0.59 26.34,2.29 38.51,5.07 25.65,7.73 43.31,18.75 52.88,33.09 10.51,14.42 17.03,32.39 19.56,53.82 0.53,29.83 -5.24,55.32 -17.28,76.43 -8.1,13.12 -15.17,23.06 -21.23,29.75l-25.56 26.62 78.51 111.07c20.57,27.04 35.12,44.16 43.74,51.41l8.36 6.4c11.65,8.86 27.22,13.91 46.86,14.98 3.02,2.26 3.28,5.31 0.77,9.16l-8.35 1.69c-25.69,0.58 -50.35,0 -73.99,-1.69 -14.17,-2.22 -27.51,-9.16 -39.99,-20.81 -12.17,-11.5 -25.58,-28.63 -40.21,-51.34l-56.48 -90.34c-3.04,-4.96 -6.35,-7.74 -9.92,-8.29 -27.64,-1.16 -43.47,-1.16 -47.57,0 -1.5,73.5 0,121.84 4.55,145 4.06,8.31 7.32,12.49 9.68,12.49l35.68 4.98c2.01,5.54 0.98,8.57 -3.06,9.16 -55.03,-1.14 -102.8,-1.14 -143.55,0l-3.81 -3.34c-0.45,-3.33 0,-5.27 1.55,-5.82l24.07 -3.36c6.1,-0.55 10.37,-7.66 12.89,-21.42 3.03,-34.25 4.07,-56.6 3.03,-67.18l0 -268.58c-0.5,-15.54 -3.03,-25.42 -7.56,-29.76 -7.58,-5.54 -13.14,-8.03 -16.7,-7.45l-21.05 -0.84c-3.02,-1.13 -4.32,-3.07 -3.79,-5.83 2.01,-3.91 4.32,-5.53 6.84,-5.07zm500.64 -0.11c51.75,2.2 97.53,2.2 137.47,0 5.01,1.05 7.18,2.49 6.67,4.11l-2.05 5.61c-11.93,0.59 -21.05,2.41 -27.51,5.62l-6.67 8.16c-2.4,3.27 -3.81,26.05 -4.33,68.24l0 151.6c1.02,24.43 2.18,41.21 3.64,50.36l6.59 29.33c12.4,36.22 36.62,57.88 72.61,64.89 35.53,2.71 63.17,-7.87 82.88,-31.58 14.78,-20.68 22.88,-52.06 24.3,-94.25l0 -209.26c0,-16.26 -2.28,-27.07 -6.66,-32.46l-6.69 -5.8c-0.42,-1.02 -11.04,-2.64 -31.83,-4.85 -1.35,-2.2 -1.81,-4.33 -1.29,-6.45l5.89 -3.27 76.97 1.62 41.35 -1.62 5.89 3.27 -0.78 5.6 -2.86 1.71c-5.43,-0.59 -12.81,0.28 -22.22,2.48 -5.94,3.22 -9.88,7.52 -11.9,12.93 -1.93,8.02 -2.82,16.4 -2.82,25.15l-0.78 197.26c-2.54,52.4 -14.2,92.1 -34.86,119.15 -27.1,31.88 -60.1,48.72 -98.99,50.36 -15.34,0.58 -29.65,0 -43.12,-1.64 -52.16,-8.01 -86.66,-35.65 -103.5,-82.8 -2.38,-4.32 -5.81,-18.32 -10.21,-42.06l-3.06 -30.95 0 -185.85 -1.54 -38.88c-1.35,-10.23 -5.77,-17.33 -13.27,-21.16l-6.59 -2.37 -23.71 -1.62 -3.6 -4.18c0,-4.26 2.18,-6.4 6.58,-6.4zm456.08 -1.51l104.05 125.28 67.38 75.28 90.6 106.93 3.08 4.99 2.26 0 -4.55 -253.6c-1.03,-21.1 -4.32,-34.29 -9.87,-39.7l-10.44 -5.82 -28.79 -2.56c-2.03,-2.78 -2.03,-5.53 0,-8.31l6.07 -1.63 77.75 1.63 40.18 -1.63 5.88 3.33 -0.77 5.84 -2.85 1.62c-13.14,-0.56 -22.27,1.44 -27.31,5.83l-6.07 8.1c-2.54,8.36 -4.01,20.29 -4.54,35.79l-5.3 357.26c-1.03,4.39 -2.28,6.9 -3.81,7.45 -5.9,0.58 -10.71,-1.41 -14.22,-5.81 -25.65,-27.63 -86.57,-96.36 -182.82,-206.38l-81.67 -100.26 -1.54 -0.84 5.27 246.88c2.09,22.24 5.33,35.73 9.93,40.65l4.52 4.1 14.43 4.19c14.03,-0.55 21.31,0.58 21.8,3.36 0.47,6.09 -3.3,8.87 -11.38,8.3l-69.37 -1.64 -51.42 0.79c-2.05,0 -3.27,-1.07 -3.81,-3.33 -0.48,-3.27 0,-5.27 1.48,-5.83 3.05,-1.65 9.34,-2.2 18.86,-1.65l12.1 -3.33c8.08,-4.96 12.16,-20.17 12.16,-45.61l3.75 -313.3 1.57 -46.37 17.41 0zm358.94 1.62l46.09 1.72 44.42 0 41.28 -1.72 6.08 2.57c0.51,3.72 0,6.19 -1.5,7.25 -12.53,0.58 -22.06,2.5 -28.68,5.83 -7.42,4.47 -10.97,18.81 -10.6,43.09l0 293.16c0.53,27.41 3.06,42.81 7.64,46.14l6.05 4.99 38.3 4.8c1.98,1.66 2.25,4.15 0.78,7.48l-8.14 2.49 -81.38 -1.64 -62.39 0.85 -3.83 -3.32 0 -4.2 3.05 -2.5c12.05,0 20.31,-1.06 24.83,-3.1 5.42,-2.78 8.93,-8.89 10.45,-18.33 3.03,-34.09 4.07,-56.41 3.03,-66.75l-0.78 -281.72c-1.48,-8.72 -4.01,-15.35 -7.56,-19.73l-6.62 -4.18 -24.07 -2.52c-3.05,-1.7 -4.09,-4.37 -3.05,-8.09l6.6 -2.57zm163.32 -0.11l94.8 1.62 43.06 -1.62c4.42,1.05 6.88,2.49 7.38,4.11l-0.79 4.76 -3.03 1.71c-6.8,-0.59 -12.96,0 -18.4,1.62l-7.35 6.48c-2.01,4.33 -2.01,10 0,17.05l5.87 21.22 85.92 256.12c2,-0.55 3.01,-1.4 3.01,-2.47 46.88,-133.86 79.22,-227.87 97.1,-282.12 0.98,-7.68 0,-12.2 -3.04,-13.8l-8.96 -3.25 -18.34 -0.85c-3.58,-1.71 -4.36,-4.42 -2.28,-8.09l7.39 -2.49 71.82 1.62 33.41 -1.62 5.88 3.27 0 4.83 -2.84 2.48c-11.39,-1.14 -20.76,1.06 -28.29,6.46 -8.78,9.3 -16.69,23.14 -23.67,41.61l-27.54 73c-13.25,30.95 -48.53,121.49 -105.75,271.68 -4.58,10.31 -8.29,15.43 -11.19,15.43 -2.06,1.62 -4.97,0.08 -8.93,-4.77 -1.48,-1.12 -7.95,-17.67 -19.34,-49.78l-116.25 -320.32c-5.44,-12.51 -13.08,-21.73 -22.94,-27.7 -6.47,-3.76 -17.07,-5.61 -31.83,-5.61l-2.33 -2.48c-0.44,-5.96 2.02,-8.69 7.45,-8.1zm411.45 2.49c34.51,1.62 99.91,2.2 196.25,1.62 13.53,-1.62 22.55,-3.62 26.92,-5.82 2.52,-0.58 4.1,0.28 4.54,2.49l-4.54 43.53 -1.49 30.97c-0.51,3.48 -2.08,5.73 -4.58,6.88l-5.13 -2.5c-0.5,-15.39 -2.26,-25.62 -5.28,-30.6 -4.05,-5.4 -8.29,-8.96 -12.69,-10.58 -9.53,-2.7 -20.09,-4.26 -31.65,-4.82l-57.1 -0.85 -0.77 1.7 0.77 146.84 84.18 -0.78 14.97 -4.18 10.6 -11.43c2.93,0 4.6,1.06 5.13,3.33 -2.9,23.44 -4.84,51.26 -5.9,83.57 -0.96,3.91 -2.26,5.85 -3.75,5.85l-5.31 -1.64c-0.52,-15.98 -2.24,-26.35 -5.3,-31.18 -5.53,-7.09 -10.29,-10.93 -14.24,-11.51 -10.49,-2.79 -37.52,-3.54 -81.15,-2.48l0 142.1c1.55,14.84 5.21,24.15 11.18,27.91 6.11,3.33 14.4,5.74 24.87,7.24 33.96,2.28 57.08,0.08 69.18,-6.46l10.42 -9.74 6.86 -15.61 3.06 -18.97c1.96,-4.39 4.71,-5.55 8.13,-3.26l1.69 7.24c-0.61,14.84 -2.47,34.09 -5.51,57.65 -2.36,17.63 -11.19,24.37 -26.35,20.39l-123.28 -3.12 -80.39 0.63 -3.55 -3.1c-0.52,-3.34 -0.07,-5.34 1.27,-5.86l24.27 -3.1c5.98,-0.57 10.18,-7.74 12.69,-21.45 3.06,-34.02 4.07,-56.18 3.06,-66.61l0 -266.07c-0.52,-15.22 -3.06,-25.07 -7.57,-29.56 -7.59,-5.39 -13.1,-7.82 -16.52,-7.25l-21.03 -0.84c-2.92,-1.13 -4.15,-3.07 -3.82,-5.82 2.06,-3.76 4.33,-5.34 6.86,-4.75zm364.66 29.94l0 178.25c2.54,3.91 12.37,6.97 29.39,9.18 16.71,1.13 29.26,0 37.72,-3.33 22.29,-13.87 34.65,-41.27 37.16,-82.18 0.52,-60.71 -21.17,-96.37 -64.98,-106.95 -22.65,-1.64 -35.7,0 -39.29,5.03zm-101.23 -32.32l91.41 1.72 61.23 -1.72c13.53,0.59 26.34,2.29 38.48,5.07 25.65,7.73 43.32,18.75 52.9,33.09 10.48,14.42 17.02,32.39 19.53,53.82 0.53,29.83 -5.22,55.32 -17.28,76.43 -8.06,13.12 -15.12,23.06 -21.19,29.75l-25.58 26.62 78.47 111.07c20.62,27.04 35.18,44.16 43.79,51.41l8.36 6.4c11.65,8.86 27.23,13.91 46.86,14.98 3.02,2.26 3.27,5.31 0.78,9.16l-8.39 1.69c-25.66,0.58 -50.36,0 -73.95,-1.69 -14.17,-2.22 -27.51,-9.16 -40.03,-20.81 -12.14,-11.5 -25.55,-28.63 -40.17,-51.34l-56.49 -90.34c-3.06,-4.96 -6.38,-7.74 -9.92,-8.29 -27.64,-1.16 -43.47,-1.16 -47.58,0 -1.48,73.5 0,121.84 4.55,145 4.05,8.31 7.33,12.49 9.69,12.49l35.69 4.98c1.97,5.54 0.95,8.57 -3.07,9.16 -55.02,-1.14 -102.85,-1.14 -143.55,0l-3.81 -3.34c-0.45,-3.33 0,-5.27 1.55,-5.82l24.07 -3.36c6.08,-0.55 10.33,-7.66 12.89,-21.42 3.03,-34.25 4.08,-56.6 3.03,-67.18l0 -268.58c-0.51,-15.54 -3.03,-25.42 -7.59,-29.76 -7.55,-5.54 -13.13,-8.03 -16.68,-7.45l-21.03 -0.84c-3.06,-1.13 -4.36,-3.07 -3.83,-5.83 2.02,-3.91 4.33,-5.53 6.86,-5.07zm400.53 301.91c1.86,-0.49 3.81,0.27 5.82,2.55 2.49,50.99 22.35,80.02 59.75,86.91 12.17,2.21 24.56,1.2 37.22,-3.13 19.83,-8.02 32.36,-24.77 37.74,-50.34 0.45,-9.53 0.08,-18.11 -1.38,-25.56 -0.52,-4.34 -3.2,-12.01 -8.15,-23.09l-7.95 -12.9 -23.3 -25.58c-29.13,-24.55 -47.83,-41.91 -56.17,-52.05 -9.59,-10.09 -18.34,-22.29 -26.17,-36.58 -19.47,-42.74 -19.72,-80.89 -0.78,-114.48 18.96,-28.67 46.92,-44.67 83.82,-47.77 17.09,-1.16 36.06,0.11 56.9,3.91 16.44,3.76 24.47,6.67 24.08,8.72l-1.49 36.86 0 37.42c-1.05,5.96 -2.18,8.94 -3.64,8.94 -3.87,0.59 -5.88,0 -5.88,-1.62l-3.54 -23.15c-5.81,-17.62 -16.53,-30.98 -32.06,-40.13 -9.25,-4.68 -22.38,-6.53 -39.49,-5.39 -26.12,5.25 -41.16,21.51 -45.09,48.63l0 11.32c1.03,9.01 2.96,16.11 5.86,21.34l10.25 16.08 15.92 17.67c35.53,30.4 55.47,48.22 59.74,53.46 44.29,45.4 58.3,95.73 42.28,151.05 -17.03,44.81 -51.62,69.3 -103.49,73.65 -14.06,0.57 -27.12,0 -39.3,-1.64 -12.11,-2.13 -21.62,-4.48 -28.4,-7.08 -11.16,-4.85 -16.7,-7.83 -16.7,-8.96l-3.06 -6.26c-0.53,-20.23 0.24,-48 2.28,-83.23 0.49,-4.26 1.97,-7.45 4.38,-9.57zm205.9 -301.91l46.08 1.72 44.41 0 41.29 -1.72 6.12 2.57c0.48,3.72 0,6.19 -1.54,7.25 -12.53,0.58 -22.06,2.5 -28.68,5.83 -7.42,4.47 -10.97,18.81 -10.57,43.09l0 293.16c0.51,27.41 3.03,42.81 7.62,46.14l6.04 4.99 38.31 4.8c1.97,1.66 2.24,4.15 0.77,7.48l-8.16 2.49 -81.36 -1.64 -62.39 0.85 -3.83 -3.32 0 -4.2 3.06 -2.5c12.03,0 20.3,-1.06 24.83,-3.1 5.45,-2.78 8.92,-8.89 10.44,-18.33 3.03,-34.09 4.06,-56.41 3.03,-66.75l-0.78 -281.72c-1.47,-8.72 -4,-15.35 -7.57,-19.73l-6.62 -4.18 -24.06 -2.52c-3.04,-1.7 -4.09,-4.37 -3.04,-8.09l6.6 -2.57zm183.55 -1.62c0.53,1.62 13.02,3.56 37.57,5.62l231.01 0 27.61 -4.76c4.09,-0.55 6.08,0.22 6.08,2.27l-1.47 77.41c-1.06,2.76 -2.27,4.41 -3.83,4.97l-4.54 -1.63 -1.56 -3.34 -1.47 -17.25c-3.44,-12.65 -16.08,-20.87 -38.12,-24.78 -22.01,-1.59 -48.21,-2.29 -78.72,-2.29l0 288.55c0.91,33.58 2.09,55.01 3.64,64.23 2.01,8.25 5.28,13.44 9.86,15.65l11.17 3.33 21.06 0.86c4.43,0 7.17,0.99 8.14,3.13 0.51,3.83 -0.97,6.38 -4.54,7.45 -82.46,-1.07 -129.92,-0.79 -142.39,0.85 -4.92,0 -8.14,-1.43 -9.7,-4.18 -0.47,-3.22 0.25,-5.35 2.33,-6.4 16.37,0 26.14,-2.29 29.17,-6.67 5.9,-4.49 9.14,-25.57 9.66,-63.29l0 -303.51 -87.58 2.29c-13.55,1.62 -22.35,4.69 -26.4,9.15l-8.87 13.93 -4.61 15.61c-4.9,3.34 -7.88,3.07 -8.86,-0.84 -1.55,-3.21 -0.07,-17.13 4.34,-41.85 3.56,-21.29 6.35,-33.3 8.35,-35.99 2,-2.63 6.26,-2.12 12.67,1.48zm319.57 2.49c26.52,1.7 53.88,2.2 81.87,1.7l37.75 -1.7 3.64 1.7 0.77 1.66 0 3.95c-5.95,3.84 -9.93,5.55 -11.96,5 -4.55,2.75 -6.31,6.94 -5.33,12.47 2,7.59 6.1,17.55 12.17,29.76l74.51 145.24 0.77 3.34 1.29 0 18.24 -39.56 54.79 -111.5 6.06 -23.95c0.52,-4.46 0,-8.09 -1.48,-10.84l-6.68 -5.82c-7.57,-0.5 -11.37,-2.5 -11.37,-5.84 0.5,-3.18 2.26,-5.04 5.29,-5.61 33.13,2.2 67.97,2.2 104.53,0 3,0 5.06,1.16 6.04,3.36l-1.48 5.59 -3.07 1.71c-3.44,-1.13 -9.9,0 -19.55,3.28 -6.42,3.33 -11.91,6.93 -16.52,10.84 -11.95,8.18 -43.09,61.57 -93.24,160.2 -11.14,22.05 -17.43,36.3 -18.79,42.84 -3.54,12.63 -5.03,36.57 -4.53,71.79 -0.5,27.05 0,52.96 1.48,77.83 0.52,6.47 1.96,12.21 4.34,17.24 2.56,3.84 6.1,6.9 10.63,9.18l33.99 3.1c2.9,2.21 3.89,4.42 3.03,6.64l-3.82 3.33c-56.73,-1.07 -106.39,-1.07 -149.06,0l-3.75 -3.33c-0.51,-3.27 0,-5.27 1.51,-5.83l24.06 -3.35c3.55,-0.91 6.33,-3.05 8.34,-6.4 6.46,-5.03 8.96,-49.91 7.38,-134.63 -1.48,-14.83 -3.24,-25.26 -5.3,-31.38 -2.37,-8.87 -7.12,-19.88 -14.19,-33.09 -37.68,-71.59 -66.51,-123.57 -86.49,-156.01 -7.08,-9.88 -14.35,-17.82 -21.8,-23.94l-15.9 -7.52 -11.22 -0.79c-1.98,-0.57 -3.03,-2.7 -3.03,-6.46l6.08 -4.2zm543.56 178.75c-0.53,13.27 0.22,30.86 2.26,52.83 3.88,27.82 10.74,52.48 20.43,73.84 13.15,27.93 30.25,49.29 51.22,64.28 15.6,9.6 34.36,16.54 56.3,20.8 22.41,1.57 41.19,-1.42 56.39,-8.95 39.42,-20.22 61.79,-66.17 67.11,-137.91 3.02,-66.32 -7.91,-119.02 -32.81,-158.15 -23.37,-34.63 -54.87,-54.94 -94.43,-60.91 -23.91,-1.14 -43.11,2.06 -57.7,9.58 -42.95,22.44 -65.87,70.66 -68.77,144.59zm114.89 -180.58c33.11,-1.71 63.33,2.33 90.67,12.06 71.65,28.26 110.16,86.57 115.47,174.98 1.98,70.59 -16.5,128.32 -55.61,173.27 -20.44,21.36 -41.86,36.56 -64.27,45.59 -19.6,8.02 -41.34,12.86 -65.25,14.55 -31.06,1.06 -59.08,-3.18 -84,-12.93 -70.16,-30.52 -109.39,-92.01 -117.75,-184.56 -1.86,-64.19 15.65,-118.52 52.77,-162.88 33.57,-36.87 76.22,-56.9 127.97,-60.08zm223.94 3.34c32,1.62 99.87,2.2 203.65,1.62l19.52 -2.49c5.44,-4.33 8.96,-4.33 10.43,0l-4.54 32.04 -1.57 40.41 -3.01 6.4 -4.35 0 -1.47 -0.81 -1.54 -3.97c0.52,-13.21 -1.05,-22.23 -4.56,-27.07 -9,-10 -19.21,-14.68 -30.75,-14.11l-76.06 -1.7 -1.87 2.68 0 146.29 79.48 0c7.48,0 14.19,-1.13 20.29,-3.34l3.79 -2.48 8.89 -10.58c1.55,-0.57 3.03,0.21 4.58,2.49l0 8.95 -3.79 25.33 -2.29 50.14 -2.84 3.36 -3.84 0 -2.25 -3.99c0.53,-20.81 -7.24,-33.86 -23.33,-39.28l-13.65 -1.7 -63.87 -0.78 -1.54 1.63c-1.36,101.27 0.12,161 4.51,179.1 4.22,8.8 7.52,13.14 9.91,13.14 10.99,2.2 23.26,3.63 36.79,4.17 2.01,1.66 3.02,3.07 3.02,4.15 -0.53,3.19 -2.01,5.19 -4.53,5.82 -56.11,-1.21 -105.94,-1.21 -149.48,0l-3.03 -2.72 0.77 -6.44 24.1 -3.35c5.96,-0.48 10.15,-7.6 12.68,-21.16 2.91,-34.59 3.94,-61.78 3.07,-81.58l0 -251.52c-0.54,-15.57 -3.07,-25.45 -7.6,-29.76 -7.44,-5.54 -13,-8.05 -16.71,-7.48l-20.82 -0.84c-2.94,-1 -4.07,-2.83 -3.64,-5.61 1.44,-2.76 3.88,-4.39 7.45,-4.96zm418.19 299.53c1.84,-0.49 3.8,0.27 5.82,2.55 2.45,50.99 22.31,80.02 59.72,86.91 12.17,2.21 24.55,1.2 37.22,-3.13 19.82,-8.02 32.39,-24.77 37.75,-50.34 0.47,-9.53 0.08,-18.11 -1.39,-25.56 -0.48,-4.34 -3.19,-12.01 -8.13,-23.09l-7.94 -12.9 -23.31 -25.58c-29.14,-24.55 -47.86,-41.91 -56.19,-52.05 -9.56,-10.09 -18.31,-22.29 -26.17,-36.58 -19.44,-42.74 -19.71,-80.89 -0.77,-114.48 18.97,-28.67 46.92,-44.67 83.82,-47.77 17.09,-1.16 36.09,0.11 56.91,3.91 16.44,3.76 24.46,6.67 24.09,8.72l-1.51 36.86 0 37.42c-1.02,5.96 -2.18,8.94 -3.64,8.94 -3.89,0.59 -5.85,0 -5.85,-1.62l-3.56 -23.15c-5.84,-17.62 -16.54,-30.98 -32.07,-40.13 -9.24,-4.68 -22.39,-6.53 -39.47,-5.39 -26.16,5.25 -41.16,21.51 -45.1,48.63l0 11.32c1.02,9.01 2.96,16.11 5.87,21.34l10.21 16.08 15.96 17.67c35.53,30.4 55.47,48.22 59.72,53.46 44.29,45.4 58.3,95.73 42.26,151.05 -17.02,44.81 -51.58,69.3 -103.47,73.65 -14.06,0.57 -27.13,0 -39.3,-1.64 -12.11,-2.13 -21.6,-4.48 -28.4,-7.08 -11.14,-4.85 -16.7,-7.83 -16.7,-8.96l-3.08 -6.26c-0.5,-20.23 0.28,-48 2.31,-83.23 0.5,-4.26 1.98,-7.45 4.39,-9.57zm388.73 -303.95c22.35,-1.63 52.51,0.22 90.43,5.61 26.28,6.39 42.09,9.61 47.38,9.61l2.85 3.95 -2.85 37.64 -0.7 52.83c-0.52,6.81 -2,10.52 -4.41,11.03l-4.93 -0.8 -2.25 -8.73c-1.05,-35.64 -17.63,-59.93 -49.74,-72.87 -26.25,-10.65 -55.46,-14.06 -87.55,-10.14 -20.4,3.56 -36.84,9.58 -49.49,18.11 -9.86,7.03 -18.94,16.13 -27.12,27.2 -17.95,26.77 -28.35,63.35 -31.3,109.64 -1.03,31.53 1.84,58.66 8.55,81.6 5.44,19.24 13.74,37.42 24.86,54.46 28.8,39.41 63.55,61.99 104.25,67.8 20.09,1.16 38.41,0.07 54.85,-3.1 16.48,-4.26 28.47,-10.73 35.78,-19.32l11.57 -15.01c6.49,-12.9 10.39,-24.63 11.81,-35.13 4.42,-4.83 7.54,-4.34 9.46,1.63 0,14.72 -2.95,37.85 -8.75,69.31 -1.36,9.17 -3.75,15.05 -7.18,17.69 -11.28,8.45 -37.3,13.76 -78.14,16.04 -45.24,0.5 -81.48,-4.54 -108.64,-15.18 -39.97,-15 -71.35,-40.63 -94.26,-76.79 -18.97,-29.94 -29.37,-66.52 -31.29,-109.64 -0.48,-37.76 4.03,-69.23 13.68,-94.44 1.85,-6.82 8.03,-19.32 18.38,-37.5 36.04,-53.81 87.57,-82.3 154.75,-85.5zm167.18 2.04l46.1 1.72 44.41 0 41.29 -1.72 6.09 2.57c0.49,3.72 0,6.19 -1.51,7.25 -12.54,0.58 -22.07,2.5 -28.66,5.83 -7.42,4.47 -10.99,18.81 -10.6,43.09l0 293.16c0.49,27.41 3.02,42.81 7.61,46.14l6.04 4.99 38.34 4.8c1.96,1.66 2.25,4.15 0.77,7.48l-8.16 2.49 -81.39 -1.64 -62.39 0.85 -3.82 -3.32 0 -4.2 3.04 -2.5c12.06,0 20.34,-1.06 24.86,-3.1 5.43,-2.78 8.9,-8.89 10.44,-18.33 3.04,-34.09 4.05,-56.41 3.04,-66.75l-0.77 -281.72c-1.48,-8.72 -4.05,-15.35 -7.61,-19.73l-6.6 -4.18 -24.07 -2.52c-3.03,-1.7 -4.07,-4.37 -3.03,-8.09l6.58 -2.57z"/>
   <path class="fil4" d="M12399.71 2757.38c34.47,1.62 99.92,2.2 196.24,1.62 13.54,-1.62 22.53,-3.62 26.9,-5.82 2.56,-0.58 4.1,0.28 4.56,2.49l-4.56 43.53 -1.48 30.97c-0.52,3.48 -2.06,5.73 -4.6,6.88l-5.11 -2.5c-0.49,-15.39 -2.25,-25.62 -5.29,-30.6 -4.04,-5.4 -8.3,-8.96 -12.68,-10.58 -9.53,-2.7 -20.09,-4.26 -31.67,-4.82l-57.06 -0.85 -0.79 1.7 0.79 146.84 84.18 -0.78 14.99 -4.18 10.59 -11.43c2.92,0 4.59,1.06 5.12,3.33 -2.92,23.44 -4.88,51.26 -5.89,83.57 -0.99,3.91 -2.29,5.85 -3.76,5.85l-5.29 -1.64c-0.54,-15.98 -2.29,-26.35 -5.35,-31.18 -5.53,-7.09 -10.29,-10.93 -14.24,-11.51 -10.47,-2.79 -37.51,-3.54 -81.14,-2.48l0 142.1c1.58,14.84 5.25,24.15 11.19,27.91 6.08,3.33 14.38,5.74 24.86,7.24 33.98,2.28 57.08,0.08 69.19,-6.46l10.43 -9.74 6.83 -15.61 3.06 -18.97c2.01,-4.39 4.71,-5.55 8.16,-3.26l1.67 7.24c-0.63,14.84 -2.43,34.09 -5.5,57.65 -2.37,17.63 -11.21,24.37 -26.34,20.39l-123.31 -3.12 -80.37 0.63 -3.56 -3.1c-0.54,-3.34 -0.07,-5.34 1.3,-5.86l24.27 -3.1c5.96,-0.57 10.14,-7.74 12.65,-21.45 3.08,-34.02 4.12,-56.18 3.08,-66.61l0 -266.07c-0.52,-15.22 -3.08,-25.07 -7.6,-29.56 -7.55,-5.39 -13.06,-7.82 -16.48,-7.25l-21.05 -0.84c-2.92,-1.13 -4.12,-3.07 -3.82,-5.82 2.06,-3.76 4.34,-5.34 6.88,-4.75zm326.92 -4l104.09 125.28 67.35 75.28 90.62 106.93 3.05 4.99 2.29 0 -4.57 -253.6c-1.02,-21.1 -4.3,-34.29 -9.87,-39.7l-10.43 -5.82 -28.81 -2.56c-2.03,-2.78 -2.03,-5.53 0,-8.31l6.07 -1.63 77.75 1.63 40.2 -1.63 5.88 3.33 -0.79 5.84 -2.84 1.62c-13.15,-0.56 -22.24,1.44 -27.29,5.83l-6.09 8.1c-2.53,8.36 -4.03,20.29 -4.55,35.79l-5.29 357.26c-1.02,4.39 -2.25,6.9 -3.82,7.45 -5.9,0.58 -10.69,-1.41 -14.18,-5.81 -25.7,-27.63 -86.61,-96.36 -182.85,-206.38l-81.67 -100.26 -1.55 -0.84 5.29 246.88c2.07,22.24 5.34,35.73 9.91,40.65l4.52 4.1 14.44 4.19c14.03,-0.55 21.31,0.58 21.8,3.36 0.45,6.09 -3.27,8.87 -11.37,8.3l-69.39 -1.64 -51.41 0.79c-2.05,0 -3.29,-1.07 -3.81,-3.33 -0.49,-3.27 0,-5.27 1.48,-5.83 3.06,-1.65 9.33,-2.2 18.85,-1.65l12.11 -3.33c8.09,-4.96 12.16,-20.17 12.16,-45.61l3.77 -313.3 1.54 -46.37 17.41 0zm541.78 -0.42c22.37,-1.63 52.51,0.22 90.45,5.61 26.28,6.39 42.09,9.61 47.39,9.61l2.84 3.95 -2.84 37.64 -0.71 52.83c-0.52,6.81 -2.01,10.52 -4.42,11.03l-4.91 -0.8 -2.26 -8.73c-1.05,-35.64 -17.63,-59.93 -49.7,-72.87 -26.28,-10.65 -55.48,-14.06 -87.59,-10.14 -20.39,3.56 -36.83,9.58 -49.5,18.11 -9.85,7.03 -18.92,16.13 -27.11,27.2 -17.97,26.77 -28.38,63.35 -31.29,109.64 -1.03,31.53 1.83,58.66 8.54,81.6 5.45,19.24 13.75,37.42 24.87,54.46 28.8,39.41 63.54,61.99 104.28,67.8 20.05,1.16 38.37,0.07 54.82,-3.1 16.48,-4.26 28.47,-10.73 35.75,-19.32l11.63 -15.01c6.45,-12.9 10.35,-24.63 11.77,-35.13 4.42,-4.83 7.56,-4.34 9.44,1.63 0,14.72 -2.91,37.85 -8.74,69.31 -1.34,9.17 -3.73,15.05 -7.17,17.69 -11.24,8.45 -37.29,13.76 -78.13,16.04 -45.24,0.5 -81.49,-4.54 -108.66,-15.18 -39.92,-15 -71.33,-40.63 -94.26,-76.79 -18.98,-29.94 -29.36,-66.52 -31.27,-109.64 -0.49,-37.76 4.03,-69.23 13.65,-94.44 1.9,-6.82 8.05,-19.32 18.4,-37.5 36.05,-53.81 87.58,-82.3 154.73,-85.5zm165.73 4.42c34.51,1.62 99.93,2.2 196.26,1.62 13.5,-1.62 22.51,-3.62 26.91,-5.82 2.53,-0.58 4.11,0.28 4.56,2.49l-4.56 43.53 -1.48 30.97c-0.53,3.48 -2.1,5.73 -4.59,6.88l-5.12 -2.5c-0.5,-15.39 -2.25,-25.62 -5.32,-30.6 -4,-5.4 -8.29,-8.96 -12.68,-10.58 -9.52,-2.7 -20.08,-4.26 -31.66,-4.82l-57.07 -0.85 -0.77 1.7 0.77 146.84 84.19 -0.78 14.98 -4.18 10.59 -11.43c2.93,0 4.58,1.06 5.12,3.33 -2.91,23.44 -4.83,51.26 -5.89,83.57 -0.95,3.91 -2.26,5.85 -3.75,5.85l-5.31 -1.64c-0.52,-15.98 -2.24,-26.35 -5.3,-31.18 -5.57,-7.09 -10.28,-10.93 -14.24,-11.51 -10.48,-2.79 -37.56,-3.54 -81.16,-2.48l0 142.1c1.54,14.84 5.23,24.15 11.19,27.91 6.07,3.33 14.36,5.74 24.88,7.24 33.94,2.28 57.08,0.08 69.18,-6.46l10.4 -9.74 6.87 -15.61 3.06 -18.97c1.97,-4.39 4.71,-5.55 8.13,-3.26l1.68 7.24c-0.64,14.84 -2.46,34.09 -5.51,57.65 -2.36,17.63 -11.19,24.37 -26.35,20.39l-123.27 -3.12 -80.41 0.63 -3.57 -3.1c-0.52,-3.34 -0.06,-5.34 1.31,-5.86l24.27 -3.1c5.98,-0.57 10.17,-7.74 12.68,-21.45 3.07,-34.02 4.08,-56.18 3.07,-66.61l0 -266.07c-0.52,-15.22 -3.07,-25.07 -7.58,-29.56 -7.58,-5.39 -13.09,-7.82 -16.51,-7.25l-21.03 -0.84c-2.94,-1.13 -4.15,-3.07 -3.82,-5.82 2.06,-3.76 4.35,-5.34 6.85,-4.75zm540.36 246.47l0.8 2.55 89.63 0 -44.32 -139.04 -2.85 3.13 -43.26 133.36zm54.84 -245.48c5.28,-1.78 9.65,2.19 13.05,11.86l118.92 337.24c7.56,18.18 13.6,30.1 18,35.77 6.65,8.61 12.7,14 18,16.06 8.61,2.21 17.47,3.34 26.52,3.34l2.29 2.29c0,4.68 -1.94,7.08 -5.83,7.08l-15.74 1.01c-67.91,0 -102.1,-1.36 -102.39,-4.14l0 -4.8c2.37,-2.09 5.02,-3.15 7.96,-3.15 1.87,-1.63 3.04,-4.26 3.56,-7.89l-39.04 -118.16 -2.84 -1.48 -105.85 0 -3.62 6.24 -27.49 83.02 -3.57 17.48c-0.49,10.72 1.11,17.1 4.95,19.16l5.86 2.49c12.35,0 19.41,0.58 21.04,1.63 1.42,4.19 0.59,7.04 -2.47,8.59 -31.1,-1 -69.72,-1 -115.85,0l-2.83 -3.13 0.77 -5.46 4.92 -1.63c11.5,1.48 22.3,-1.43 32.41,-8.75 7.69,-6.52 15.6,-21.7 23.67,-45.57l117.57 -336.39c2.46,-6.4 5.1,-10.57 8.03,-12.71zm276.44 -4.99l104.06 125.28 67.38 75.28 90.61 106.93 3.05 4.99 2.3 0 -4.58 -253.6c-1.01,-21.1 -4.3,-34.29 -9.89,-39.7l-10.41 -5.82 -28.82 -2.56c-2,-2.78 -2,-5.53 0,-8.31l6.08 -1.63 77.77 1.63 40.18 -1.63 5.88 3.33 -0.77 5.84 -2.86 1.62c-13.13,-0.56 -22.25,1.44 -27.29,5.83l-6.07 8.1c-2.57,8.36 -4.05,20.29 -4.56,35.79l-5.3 357.26c-1.02,4.39 -2.27,6.9 -3.83,7.45 -5.89,0.58 -10.66,-1.41 -14.18,-5.81 -25.67,-27.63 -86.58,-96.36 -182.83,-206.38l-81.7 -100.26 -1.55 -0.84 5.31 246.88c2.07,22.24 5.31,35.73 9.93,40.65l4.52 4.1 14.42 4.19c14.05,-0.55 21.31,0.58 21.82,3.36 0.45,6.09 -3.31,8.87 -11.39,8.3l-69.37 -1.64 -51.42 0.79c-2.04,0 -3.32,-1.07 -3.8,-3.33 -0.53,-3.27 0,-5.27 1.48,-5.83 3.06,-1.65 9.31,-2.2 18.84,-1.65l12.1 -3.33c8.07,-4.96 12.17,-20.17 12.17,-45.61l3.77 -313.3 1.53 -46.37 17.42 0zm460.66 63.84c-0.94,188.83 0.29,290.03 3.73,303.81 3.55,14.26 20.97,23.57 52.36,27.83 28.93,1.69 54.85,-1.29 77.75,-8.96 16.58,-5.96 30.29,-14.18 41.15,-24.71 15.53,-14.12 27.08,-31.88 34.5,-53.24 4.41,-13.21 8.15,-35.38 11.2,-66.62 0.98,-39.33 -2.2,-70.3 -9.71,-92.75 -5.87,-19.73 -15.2,-38.27 -27.82,-55.8 -9.92,-12.58 -20.79,-23.3 -32.64,-32.03 -25.57,-16.89 -56.24,-27.56 -92.18,-32.04 -28.89,-1.13 -46.91,0.31 -53.83,4.19l-3.81 4.76 -0.7 25.56zm-103.19 -61.55l68.83 1.71 107.68 -1.71c30.88,1.71 51.79,3.61 62.77,5.81 47.92,8.75 84.95,30.61 110.94,65.54 24.8,35.65 37.95,75.86 39.44,120.65 0.63,21.53 -1.1,42.91 -5.33,64.15 -23.74,106.07 -93.49,160.82 -209.31,164.31l-56.13 -3.53 -32.97 -3.13 -81.41 0.61 -3.76 -3.1c-0.51,-3.34 0,-5.27 1.5,-5.85l23.91 -3.1c5.95,-0.58 10.09,-7.68 12.52,-21.45 3.1,-33.79 4.16,-56.03 3.02,-66.54l0 -266.09c-0.46,-15.27 -2.93,-25.07 -7.39,-29.33 -7.45,-5.54 -12.95,-8.02 -16.53,-7.53l-20.83 -0.77c-2.9,-1.01 -4.09,-2.84 -3.63,-5.62 1.95,-4.02 4.16,-5.73 6.68,-5.03zm531.38 -2.29c0.52,1.62 13.01,3.56 37.56,5.62l231.02 0 27.61 -4.76c4.1,-0.55 6.09,0.22 6.09,2.27l-1.47 77.41c-1.06,2.76 -2.29,4.41 -3.83,4.97l-4.54 -1.63 -1.57 -3.34 -1.48 -17.25c-3.42,-12.65 -16.11,-20.87 -38.11,-24.78 -22.02,-1.59 -48.22,-2.29 -78.72,-2.29l0 288.55c0.92,33.58 2.09,55.01 3.63,64.23 2,8.25 5.3,13.44 9.82,15.65l11.22 3.33 21.06 0.86c4.43,0 7.18,0.99 8.15,3.13 0.5,3.83 -0.97,6.38 -4.55,7.45 -82.46,-1.07 -129.91,-0.79 -142.39,0.85 -4.94,0 -8.16,-1.43 -9.71,-4.18 -0.45,-3.22 0.25,-5.35 2.33,-6.4 16.34,0 26.15,-2.29 29.19,-6.67 5.88,-4.49 9.12,-25.57 9.61,-63.29l0 -303.51 -87.55 2.29c-13.54,1.62 -22.33,4.69 -26.38,9.15l-8.91 13.93 -4.6 15.61c-4.89,3.34 -7.85,3.07 -8.83,-0.84 -1.55,-3.21 -0.07,-17.13 4.34,-41.85 3.54,-21.29 6.33,-33.3 8.31,-35.99 2.03,-2.63 6.29,-2.12 12.7,1.48zm319.39 4c34.48,1.62 99.93,2.2 196.22,1.62 13.55,-1.62 22.55,-3.62 26.93,-5.82 2.53,-0.58 4.09,0.28 4.54,2.49l-4.54 43.53 -1.48 30.97c-0.53,3.48 -2.06,5.73 -4.59,6.88l-5.13 -2.5c-0.5,-15.39 -2.26,-25.62 -5.29,-30.6 -4.04,-5.4 -8.29,-8.96 -12.69,-10.58 -9.53,-2.7 -20.07,-4.26 -31.65,-4.82l-57.08 -0.85 -0.78 1.7 0.78 146.84 84.2 -0.78 14.96 -4.18 10.61 -11.43c2.9,0 4.6,1.06 5.12,3.33 -2.93,23.44 -4.85,51.26 -5.89,83.57 -0.98,3.91 -2.29,5.85 -3.77,5.85l-5.29 -1.64c-0.52,-15.98 -2.27,-26.35 -5.33,-31.18 -5.54,-7.09 -10.29,-10.93 -14.24,-11.51 -10.48,-2.79 -37.53,-3.54 -81.15,-2.48l0 142.1c1.57,14.84 5.24,24.15 11.22,27.91 6.06,3.33 14.35,5.74 24.83,7.24 33.99,2.28 57.08,0.08 69.18,-6.46l10.44 -9.74 6.83 -15.61 3.06 -18.97c2,-4.39 4.71,-5.55 8.17,-3.26l1.66 7.24c-0.62,14.84 -2.43,34.09 -5.49,57.65 -2.38,17.63 -11.21,24.37 -26.35,20.39l-123.3 -3.12 -80.4 0.63 -3.54 -3.1c-0.53,-3.34 -0.07,-5.34 1.3,-5.86l24.27 -3.1c5.96,-0.57 10.14,-7.74 12.68,-21.45 3.04,-34.02 4.09,-56.18 3.04,-66.61l0 -266.07c-0.51,-15.22 -3.04,-25.07 -7.58,-29.56 -7.58,-5.39 -13.06,-7.82 -16.48,-7.25l-21.05 -0.84c-2.94,-1.13 -4.13,-3.07 -3.82,-5.82 2.05,-3.76 4.35,-5.34 6.87,-4.75zm449.82 -4.42c22.33,-1.63 52.49,0.22 90.43,5.61 26.27,6.39 42.06,9.61 47.39,9.61l2.86 3.95 -2.86 37.64 -0.72 52.83c-0.53,6.81 -2.02,10.52 -4.43,11.03l-4.9 -0.8 -2.25 -8.73c-1.05,-35.64 -17.61,-59.93 -49.7,-72.87 -26.29,-10.65 -55.49,-14.06 -87.59,-10.14 -20.41,3.56 -36.84,9.58 -49.52,18.11 -9.84,7.03 -18.91,16.13 -27.11,27.2 -17.92,26.77 -28.36,63.35 -31.29,109.64 -1.01,31.53 1.82,58.66 8.55,81.6 5.44,19.24 13.74,37.42 24.86,54.46 28.8,39.41 63.59,61.99 104.29,67.8 20.05,1.16 38.36,0.07 54.82,-3.1 16.49,-4.26 28.47,-10.73 35.78,-19.32l11.59 -15.01c6.5,-12.9 10.39,-24.63 11.78,-35.13 4.41,-4.83 7.57,-4.34 9.48,1.63 0,14.72 -2.93,37.85 -8.79,69.31 -1.31,9.17 -3.72,15.05 -7.15,17.69 -11.26,8.45 -37.27,13.76 -78.14,16.04 -45.23,0.5 -81.46,-4.54 -108.67,-15.18 -39.91,-15 -71.32,-40.63 -94.24,-76.79 -18.95,-29.94 -29.39,-66.52 -31.28,-109.64 -0.52,-37.76 4.04,-69.23 13.69,-94.44 1.85,-6.82 8.01,-19.32 18.36,-37.5 36.09,-53.81 87.58,-82.3 154.76,-85.5zm164.36 1.28c50.92,2.2 97.62,2.2 139.98,0 5.06,1.08 7.34,2.48 6.82,4.13l-0.78 5.04 -3.05 1.62c-15.54,0 -25.3,2.22 -29.36,6.68 -4.05,4.42 -6.29,9.17 -6.82,14.13 -2.51,14.28 -3.04,62.42 -1.55,144.36l190.84 0 0.69 -1.63c1.03,-94.02 0,-142.73 -3.04,-146.06 -2.55,-6.67 -6.03,-11.08 -10.62,-13.28 -0.99,-1.14 -12.36,-2.76 -34.12,-5.05 -1.48,-1.07 -2,-3.33 -1.48,-6.61 0.98,-2.25 2.95,-3.33 5.99,-3.33 52,2.2 99,2.2 140.93,0l6.08 3.33c0.53,4.42 0,6.61 -1.55,6.61 -13.65,0.59 -23.48,2.56 -29.58,5.83 -7.57,4.48 -11.07,18.82 -10.59,43.1l0 286.69c1.01,21.51 2.25,36.43 3.8,44.72 2.54,8.32 6.06,13.28 10.62,14.99 11.11,2.2 23.25,3.64 36.38,4.13 3.04,2.26 4.07,4.47 3.04,6.67l-3.77 3.34c-57.02,-1.14 -107.05,-1.14 -150.03,0 -2.53,-1.14 -4.01,-2.49 -4.54,-4.18 0,-3.27 1.04,-5.27 3.06,-5.83 11.64,0 20.45,-1.35 26.52,-4.13 7.05,-3.92 11.13,-22.15 12.21,-54.75l0.69 -142.1 -2.26 -1.62 -188.49 0 -1.48 1.62c-0.53,82.02 0,135.44 1.48,160.21l3.79 25.01c2.53,6.09 6.29,10.23 11.34,12.41l34.77 3.35c2.98,2.26 4.01,4.47 2.98,6.67l-4.53 3.34c-57.04,-1.14 -106.93,-1.14 -149.78,0l-3.82 -3.34c-0.52,-3.33 0,-5.27 1.58,-5.82l24.24 -3.36c6,-0.55 10.29,-7.72 12.69,-21.57 3.04,-34.3 4.01,-56.68 3.04,-67.26l0 -269.22c-0.51,-15.38 -2.98,-25.25 -7.42,-29.74 -7.58,-5.54 -13.15,-8.03 -16.64,-7.44l-21.32 -0.87c-2.99,-1.11 -4.29,-3.04 -3.76,-5.8 2.03,-3.91 4.28,-5.54 6.82,-4.99zm489.29 -0.86l104.06 125.28 67.36 75.28 90.61 106.93 3.08 4.99 2.25 0 -4.55 -253.6c-1.04,-21.1 -4.32,-34.29 -9.88,-39.7l-10.43 -5.82 -28.8 -2.56c-2.04,-2.78 -2.04,-5.53 0,-8.31l6.08 -1.63 77.75 1.63 40.16 -1.63 5.9 3.33 -0.77 5.84 -2.85 1.62c-13.15,-0.56 -22.23,1.44 -27.32,5.83l-6.06 8.1c-2.53,8.36 -4.04,20.29 -4.56,35.79l-5.28 357.26c-1.04,4.39 -2.26,6.9 -3.82,7.45 -5.88,0.58 -10.7,-1.41 -14.18,-5.81 -25.69,-27.63 -86.61,-96.36 -182.87,-206.38l-81.65 -100.26 -1.57 -0.84 5.3 246.88c2.09,22.24 5.34,35.73 9.92,40.65l4.52 4.1 14.43 4.19c14.04,-0.55 21.3,0.58 21.81,3.36 0.45,6.09 -3.29,8.87 -11.38,8.3l-69.37 -1.64 -51.41 0.79c-2.07,0 -3.28,-1.07 -3.83,-3.33 -0.5,-3.27 0,-5.27 1.48,-5.83 3.06,-1.65 9.34,-2.2 18.87,-1.65l12.09 -3.33c8.1,-4.96 12.15,-20.17 12.15,-45.61l3.76 -313.3 1.55 -46.37 17.45 0zm417.19 181.24c-0.52,13.27 0.25,30.86 2.25,52.83 3.89,27.82 10.76,52.48 20.46,73.84 13.13,27.93 30.23,49.29 51.22,64.28 15.59,9.6 34.37,16.54 56.3,20.8 22.4,1.57 41.16,-1.42 56.39,-8.95 39.4,-20.22 61.81,-66.17 67.11,-137.91 3.03,-66.32 -7.88,-119.02 -32.82,-158.15 -23.35,-34.63 -54.87,-54.94 -94.44,-60.91 -23.88,-1.14 -43.1,2.06 -57.67,9.58 -42.98,22.44 -65.9,70.66 -68.8,144.59zm114.9 -180.58c33.14,-1.71 63.35,2.33 90.68,12.06 71.65,28.26 110.15,86.57 115.47,174.98 1.96,70.59 -16.52,128.32 -55.61,173.27 -20.44,21.36 -41.88,36.56 -64.26,45.59 -19.6,8.02 -41.36,12.86 -65.27,14.55 -31.06,1.06 -59.08,-3.18 -84.01,-12.93 -70.16,-30.52 -109.38,-92.01 -117.73,-184.56 -1.88,-64.19 15.67,-118.52 52.77,-162.88 33.59,-36.87 76.23,-56.9 127.96,-60.08zm224.15 0.96c48.16,2.29 95.28,2.29 141.41,0l5.9 3.37c0.53,4.31 0,6.45 -1.56,6.45l-26.13 2.5 -9.86 5.04c-4.52,5.54 -7.09,12.14 -7.57,19.73l-1.55 66.2 0 203c0.53,37.44 3.3,59.82 8.34,66.98 4.09,6.52 17.36,11.21 39.83,13.99 29.17,0.49 47.32,0 54.24,-1.7 10.09,-2.21 18.19,-6.9 24.07,-13.92 6.09,-9.44 10.37,-22.45 12.94,-38.92l5.1 -2.49c2.98,1.65 4.29,3.62 3.76,5.82 -2.5,42.46 -6.02,68.02 -10.42,76.77 -3.02,4.4 -12.3,6.67 -27.9,6.67l-121.88 -3.33 -87.46 0.85 -3.59 -3.32 0 -4.2 2.82 -2.5c16.6,0 26.42,-2.4 29.4,-7.3 6.1,-8.89 9.13,-29.82 9.13,-62.8l0 -288.15c-0.53,-15.41 -3.03,-25.29 -7.56,-29.75 -4.92,-4.96 -17.23,-8.03 -36.86,-9.17 -2.51,-5.39 -0.7,-8.66 5.4,-9.82zm322.71 179.62c-0.52,13.27 0.25,30.86 2.27,52.83 3.89,27.82 10.72,52.48 20.45,73.84 13.14,27.93 30.22,49.29 51.19,64.28 15.61,9.6 34.39,16.54 56.33,20.8 22.37,1.57 41.18,-1.42 56.39,-8.95 39.41,-20.22 61.79,-66.17 67.1,-137.91 3.03,-66.32 -7.9,-119.02 -32.8,-158.15 -23.39,-34.63 -54.91,-54.94 -94.43,-60.91 -23.9,-1.14 -43.12,2.06 -57.7,9.58 -42.98,22.44 -65.87,70.66 -68.8,144.59zm114.91 -180.58c33.12,-1.71 63.34,2.33 90.68,12.06 71.65,28.26 110.12,86.57 115.47,174.98 1.98,70.59 -16.52,128.32 -55.63,173.27 -20.44,21.36 -41.85,36.56 -64.26,45.59 -19.61,8.02 -41.33,12.86 -65.26,14.55 -31.06,1.06 -59.08,-3.18 -83.99,-12.93 -70.15,-30.52 -109.38,-92.01 -117.73,-184.56 -1.88,-64.19 15.64,-118.52 52.74,-162.88 33.59,-36.87 76.24,-56.9 127.98,-60.08zm402.91 1.39c31.84,-0.54 61.82,1.36 89.9,5.62 27.73,5.84 45.65,8.76 53.84,8.76 2.41,0.55 3.83,2.2 4.34,4.81 -2.88,26.63 -4.05,58.53 -3.56,95.65l-1.55 3.99 -1.48 0.65 -5.11 0 -1.36 -1.51c-2.41,-23.43 -7.69,-39.32 -15.93,-47.8 -10.24,-12.21 -24.24,-22.28 -42.04,-30.18 -13.14,-4.89 -26.54,-8.57 -40.01,-11.2 -13.09,-2.13 -28.29,-2.41 -45.78,-0.85 -71.13,10.64 -108.87,60.55 -113.19,149.77 -1.49,63.7 13.45,115.68 44.96,156 28.55,34.02 64.87,52.62 108.81,55.81 16.07,1.07 30.35,0.07 42.86,-3.12 7.25,-1.69 12.1,-6.73 14.62,-15.19l0 -121.95c-0.97,-8.44 -2.27,-13.97 -3.75,-16.61l-6.47 -7.1c-2.41,-2.75 -13.79,-4.89 -34.12,-6.46 -1.92,-2.64 -1.92,-5.24 0,-7.88l5.82 -1.7c49.85,2.14 92.65,2.14 128.44,0 3.42,0.54 5.89,2.22 7.36,4.82l-1.47 4.76 -20.33 3.13c-3.43,0.58 -7.07,3.48 -11.01,8.72l-3.57 12.09 -0.77 138.54c0,4.33 -0.96,7.52 -2.84,9.6 -24.64,15.97 -59.03,24.71 -103.18,26.2 -72.55,1.69 -129.4,-16.05 -170.47,-53.27 -37.32,-33.95 -57.37,-80.94 -60.27,-141.03 -2.41,-63.13 13.59,-115.67 47.94,-157.72 32.9,-39.78 79.29,-61.55 139.37,-65.35zm204.49 0.44c26.52,1.7 53.82,2.2 81.86,1.7l37.72 -1.7 3.63 1.7 0.78 1.66 0 3.95c-5.97,3.84 -9.89,5.55 -11.96,5 -4.57,2.75 -6.29,6.94 -5.34,12.47 2.04,7.59 6.11,17.55 12.18,29.76l74.52 145.24 0.8 3.34 1.26 0 18.25 -39.56 54.77 -111.5 6.06 -23.95c0.53,-4.46 0,-8.09 -1.48,-10.84l-6.65 -5.82c-7.58,-0.5 -11.39,-2.5 -11.39,-5.84 0.5,-3.18 2.25,-5.04 5.29,-5.61 33.15,2.2 67.98,2.2 104.52,0 3.02,0 5.06,1.16 6.04,3.36l-1.47 5.59 -3.1 1.71c-3.38,-1.13 -9.85,0 -19.5,3.28 -6.43,3.33 -11.92,6.93 -16.55,10.84 -11.94,8.18 -43.07,61.57 -93.23,160.2 -11.12,22.05 -17.41,36.3 -18.8,42.84 -3.54,12.63 -5.02,36.57 -4.51,71.79 -0.51,27.05 0,52.96 1.49,77.83 0.53,6.47 1.94,12.21 4.33,17.24 2.54,3.84 6.08,6.9 10.62,9.18l33.98 3.1c2.92,2.21 3.88,4.42 3.05,6.64l-3.83 3.33c-56.75,-1.07 -106.39,-1.07 -149.06,0l-3.76 -3.33c-0.49,-3.27 0,-5.27 1.51,-5.83l24.06 -3.35c3.56,-0.91 6.34,-3.05 8.36,-6.4 6.46,-5.03 8.93,-49.91 7.4,-134.63 -1.52,-14.83 -3.28,-25.26 -5.33,-31.38 -2.41,-8.87 -7.12,-19.88 -14.19,-33.09 -37.66,-71.59 -66.52,-123.57 -86.46,-156.01 -7.11,-9.88 -14.38,-17.82 -21.81,-23.94l-15.93 -7.52 -11.21 -0.79c-1.98,-0.57 -3.03,-2.7 -3.03,-6.46l6.11 -4.2z"/>
  </g>
 </g>
</svg>
